<?xml version="1.0" encoding="utf-8"?>
<!-- Generator: Adobe Illustrator 25.0.0, SVG Export Plug-In . SVG Version: 6.00 Build 0)  -->
<svg version="1.1" id="Layer_1" xmlns="http://www.w3.org/2000/svg" xmlns:xlink="http://www.w3.org/1999/xlink" x="0px" y="0px"
	 viewBox="0 0 1366 768" style="enable-background:new 0 0 1366 768;" xml:space="preserve">
<style type="text/css">
	.st0{fill:#FFFFFF;}
	.st1{fill:#284651;}
</style>
<circle class="st0" cx="706.3" cy="373" r="234.8"/>
<g>
	<g>
		<path class="st1" d="M491.6,371.6c0.1-118,94.9-212.9,211.3-214.7C823,155.1,919.2,251.2,921.1,368
			c2,119.7-94.2,218.3-214.5,218.5C587.8,586.6,491.6,490.4,491.6,371.6z M806.2,326.3c-67.2,0-133.9,0-200.9,0c0,2.8,0,5.3,0,7.9
			c-0.1,63.8-0.1,127.5-0.2,191.3c0,2.1,0.7,2.8,2.6,3c8,0.8,16,1.8,24.1,2.4c14.8,1.1,29.7,2,44.5,2.7c11.6,0.6,23.3,1.4,35,0.9
			c24.2-1,48.3-2.6,72.5-4.2c6.6-0.4,13.1-1.8,19.7-2.8c1.8-0.3,2.6-1.2,2.6-3.2c0-13.3,0.1-26.7,0.2-40c0-49,0.1-98,0.1-146.9
			C806.2,333.7,806.2,330.1,806.2,326.3z M807.4,321.5c-0.4-0.5-0.5-0.7-0.7-0.9c-22.1-22.3-44.1-44.7-66.3-66.9
			c-11.9-11.9-23.9-23.8-35.9-35.6c-0.4-0.4-0.9-1-0.9-1.5c0.1-3.4,0.3-6.8,0.4-10.3c1.4,0.1,2.5,0.2,3.6,0.4
			c8.4,1.2,16.5,0,24.4-3.2c0.6-0.3,1.6-0.9,1.6-1.4c0.1-5.4,0.1-10.8,0.1-15.6c-5.3,1-10.9,2.5-16.5,2.9
			c-5.7,0.4-11.5-0.4-17.4-0.7c0,8.9,0,18-0.1,27.2c0,1.2-0.5,2.7-1.3,3.6c-6,6.9-12.1,13.8-18.3,20.6c-12.7,14-25.5,28-38.3,41.9
			c-11.7,12.7-23.4,25.3-35.1,38c-0.4,0.4-0.7,0.9-1.2,1.6C672.9,321.5,740,321.5,807.4,321.5z"/>
	</g>
</g>
</svg>
