<?xml version="1.0" encoding="utf-8"?>
<!-- Generator: Adobe Illustrator 25.0.0, SVG Export Plug-In . SVG Version: 6.00 Build 0)  -->
<svg version="1.1" id="Layer_1" xmlns="http://www.w3.org/2000/svg" xmlns:xlink="http://www.w3.org/1999/xlink" x="0px" y="0px"
	 viewBox="0 0 1366 768" style="enable-background:new 0 0 1366 768;" xml:space="preserve">
<style type="text/css">
	.st0{fill:#FFFFFF;}
	.st1{fill:#284651;}
</style>
<circle class="st0" cx="706.3" cy="373" r="234.8"/>
<g>
	<g>
		<path class="st1" d="M709,586.9c-119,1.3-214.5-93.6-217.4-209.3c-2.9-120.3,92.9-218.3,211.2-220.2
			c120.7-1.9,216.7,94.3,218.7,210.8C923.6,488.9,826.7,585.8,709,586.9z M747.5,417.1c0,0.9,0,1.6,0,2.3c0,21.5,0,43,0,64.5
			c0,7.9,5.3,13.2,13.2,13.2c17,0,34.1,0,51.1,0c9,0,14-4.9,14-13.8c0-48.6,0-97.2,0-145.7c0-25.8,0-51.6,0-77.4
			c0-7.1-5-12.7-11.9-12.7c-18.2-0.1-36.3-0.1-54.5,0c-6,0-11.4,4.6-11.7,10.6c-0.5,8.1-0.1,16.2-0.1,24.4c5.1,0.6,8.3,3.7,11,7.5
			c3.6,5.2,6,10.9,7.6,16.9c7.3,26.5,7.5,53.1,1.6,79.8c-1.9,8.5-4.6,16.8-9.9,23.9C755.4,413.9,752.3,416.7,747.5,417.1z
			 M753.2,300.6c-7.2,4.7-14.9,4.9-22.9,4.8c-36.9-0.1-73.7,0-110.6,0c-6.3,0-12.6,0-19,0c-0.8,0-1.9-0.5-2.3-1.1
			c-4.9-8.5-18.2-10.7-26.7-5.9c-9.2,5.3-12.3,16.6-12.1,24.6c0,1.6,1.1,1.9,2.3,1.5c1.7-0.5,3.3-1.2,4.9-1.8
			c3.9-1.6,7.7-3.5,11.7-4.9c5.7-2,10.5-0.1,14.3,4.4c3.6,4.2,5.8,9.1,7.4,14.3c0.4,1.4,1,1.9,2.4,2c23.4,1.8,46.8,3.7,70.2,5.6
			c21.7,1.7,43.5,3.6,65.2,5.1c4.1,0.3,7.4,1.6,10.4,4.1c4.1,3.4,8.2,6.8,12.5,10.4C762.4,342.2,761.5,321.1,753.2,300.6z
			 M617.5,497c0.1-0.7,0.2-1.3,0.2-1.9c0-18.3,0-36.6-0.1-54.9c0-1-0.6-2.3-1.4-3.1c-7.6-7.7-15.2-15.3-22.8-22.9
			c-0.7-0.7-1.4-1.8-1.4-2.8c-0.3-3.6-0.3-7.2-0.4-10.8c-0.4-19.3-0.9-38.6-1.2-57.9c-0.1-3.8-0.7-7.4-2.7-10.7
			c-3.2-5.2-4-5.6-9.5-3.2c-0.5,0.2-1,0.5-1.5,0.6c-1.5,0.5-2,1.4-2,3c0.1,25.5,0,51,0.1,76.4c0,1.2,0.6,2.6,1.5,3.5
			c9.1,9.3,18.4,18.5,27.6,27.6c1.3,1.3,1.8,2.6,1.8,4.4c-0.1,16.6,0,33.2,0,49.8c0,0.9,0,1.8,0,2.8C609.7,497,613.6,497,617.5,497z
			"/>
	</g>
</g>
</svg>
