<?xml version="1.0" encoding="utf-8"?>
<!-- Generator: Adobe Illustrator 25.0.0, SVG Export Plug-In . SVG Version: 6.00 Build 0)  -->
<svg version="1.1" id="Layer_1" xmlns="http://www.w3.org/2000/svg" xmlns:xlink="http://www.w3.org/1999/xlink" x="0px" y="0px"
	 viewBox="0 0 1366 768" style="enable-background:new 0 0 1366 768;" xml:space="preserve">
<style type="text/css">
	.st0{fill:#FFFFFF;}
	.st1{fill:#284651;}
	.st2{fill:#2B4853;}
	.st3{fill:#2A4752;}
	.st4{fill:#2A4852;}
	.st5{fill:#294752;}
</style>
<circle class="st0" cx="706.3" cy="373" r="234.8"/>
<g>
	<g>
		<path class="st1" d="M492,372.3c0.1-118.2,95.1-213.2,211.6-214.9c121-1.7,218.4,96.4,218,215.7c-0.4,117.1-95.3,215-216.3,214.3
			C586.6,586.6,492,490,492,372.3z M860.7,486c0-1.1,0-2,0-2.9c0-47.3,0-94.7,0-142c0-2.6-0.2-5.1-0.1-7.7c0.1-2.2-0.8-3.7-2.4-5.1
			c-47.8-40.8-95.5-81.6-143.3-122.4c-0.6-0.5-1.2-1-1.9-1.5c-0.7,0.5-1.2,0.9-1.8,1.4c-52.2,43.5-104.4,87-156.6,130.4
			c-1.3,1.1-1.8,2.1-1.8,3.8c0,47.8,0,95.7,0,143.5c0,0.8,0,1.7,0,2.5C655.6,486,758,486,860.7,486z"/>
		<path class="st2" d="M710.3,257.9c61.5,0,111.4,50,111.4,111.5c0,61.6-49.8,111.6-111.3,111.6c-62.5,0-112.1-51-111.7-112.7
			C599,307.7,649.1,257.9,710.3,257.9z M709.9,471.4c55.9,0.2,102.3-45.7,102.6-101.3c0.3-57.9-45.9-102.7-100.8-103.6
			c-56-0.9-103.6,43.9-104,102C607.3,425,653.4,471.2,709.9,471.4z"/>
		<path class="st3" d="M770.5,407.1c-0.6-0.4-2.1-0.9-3.1-1.9c-6-6.6-11.9-13.4-17.8-20c-1.3-1.5-2.1-3.1-1.3-5
			c0.7-1.8,2.2-2.2,4-2.5c8.6-1.3,17.3-2.7,25.9-4.1c3.8-0.6,6.7,2.8,5.5,6.4c-2.6,7.9-5.3,15.8-8,23.7
			C775.1,405.8,773.6,407,770.5,407.1z"/>
		<path class="st3" d="M767.3,317.9c-1.5,1.7-2.4,3.5-3.9,4.1c-8.4,3.9-17,7.6-25.6,11.2c-3.4,1.4-6.1-0.8-5.5-4.5
			c1.3-8.7,2.6-17.3,4-26c0.7-4.6,4.7-6.2,8.5-3.4c6.3,4.6,12.6,9.2,18.8,14C764.9,314.4,765.8,316.1,767.3,317.9z"/>
		<path class="st3" d="M700,444c-8.3,1.3-9.5-4.1-6.4-9.4c4-7,7.4-14.3,11-21.5c0.8-1.6,1.8-3,3.9-3.1c2.1-0.1,3.1,1.2,4.1,2.8
			c4.3,7.4,8.7,14.8,13.1,22.2c2.3,4,0.4,7.6-4.2,7.9C714.2,443.3,707,443.6,700,444z"/>
		<path class="st3" d="M685.9,329.5c0,4.2-2.4,6-5.5,4.7c-8.4-3.7-16.7-7.4-25-11.3c-3.3-1.5-3.8-5.7-1-8
			c6.6-5.4,13.3-10.7,20.1-15.8c3-2.3,6.7-0.6,7.3,3.3c1.2,6.9,2.1,13.9,3.2,20.8C685.2,325.6,685.6,327.9,685.9,329.5z"/>
		<path class="st3" d="M638.9,373.4c4.9,0.9,10.4,2,15.9,3c3.8,0.7,7.5,1.4,11.3,2.2c3.7,0.8,4.8,4.1,2.3,6.8
			c-6.2,6.6-12.4,13.1-18.7,19.6c-2.6,2.7-6.6,1.9-7.9-1.6c-2.8-7.9-5.5-15.8-8.1-23.8C632.5,376.1,634.8,373.3,638.9,373.4z"/>
		<path class="st3" d="M726.5,388.3c1.3,0.7,2.8,1.2,3.8,2.2c9.5,9.6,18.9,19.3,28.3,29c2.3,2.4,2,5.7-0.7,7.7
			c-2.4,1.9-4.8,3.7-7.2,5.5c-2.8,2-5.5,1.5-7.3-1.5c-7.1-11.7-14.1-23.3-21.1-35C720.2,392.7,722.3,388.7,726.5,388.3z"/>
		<path class="st3" d="M774.8,336.9c3,0.1,4.7,1.2,5.5,3.5c1,3,2,6,2.9,9.1c0.9,3-0.6,5.5-3.7,6.1c-13.5,2.9-27.1,5.7-40.6,8.5
			c-2.3,0.5-4.5-0.9-5.3-3.1c-0.9-2.4,0.1-5,2.6-6.2c2.8-1.4,5.8-2.7,8.6-4.1c9.2-4.3,18.4-8.6,27.6-12.9
			C773.4,337.4,774.4,337.1,774.8,336.9z"/>
		<path class="st3" d="M708.5,291.7c1.5,0,3,0,4.5,0c3.3,0.1,5.2,2.1,4.8,5.4c-0.6,6.4-1.3,12.9-2,19.3c-0.7,7-1.5,13.9-2.2,20.9
			c-0.3,3.1-1.8,4.8-4.4,5c-2.8,0.2-5.1-1.5-5.5-4.5c-1.1-8.1-2.1-16.1-3.1-24.2c-0.6-4.7-0.9-9.4-1.8-14c-0.9-4.7,0.9-8.5,6.7-7.9
			C706.6,291.8,707.6,291.7,708.5,291.7z"/>
		<path class="st4" d="M642.3,337c0.6,0.2,1.4,0.4,2.2,0.7c12.3,5.3,24.5,10.7,36.8,16.1c2.9,1.3,4,3.3,3.2,5.8
			c-0.8,2.6-3.1,4-6,3.5c-13-2.4-26.1-4.7-39.1-7.1c-4.2-0.8-5.6-3.2-4.4-7.3c0.8-2.8,1.7-5.5,2.5-8.2
			C638.2,338.3,639.7,337.2,642.3,337z"/>
		<path class="st3" d="M670.6,434.1c-3,0-12-6.8-12.7-9.1c-0.7-2.2,0.3-3.8,1.8-5.3c8.5-8.9,16.9-17.8,25.4-26.8
			c0.8-0.9,1.6-1.8,2.4-2.6c1.7-1.7,4-2,5.9-0.8c1.9,1.2,2.9,3.7,2.1,5.8c-0.2,0.7-0.6,1.3-1,1.9c-6.6,11.3-13.2,22.6-19.8,33.8
			C673.6,432.9,672.2,434.1,670.6,434.1z"/>
		<path class="st5" d="M695.4,370.9c0-8,6.3-14.5,14.4-14.6c8.1-0.1,14.6,6.4,14.6,14.5c0,8-6.4,14.5-14.4,14.5
			C701.8,385.5,695.4,379.1,695.4,370.9z"/>
	</g>
</g>
</svg>
