<?xml version="1.0" encoding="utf-8"?>
<!-- Generator: Adobe Illustrator 25.0.0, SVG Export Plug-In . SVG Version: 6.00 Build 0)  -->
<svg version="1.1" id="Layer_1" xmlns="http://www.w3.org/2000/svg" xmlns:xlink="http://www.w3.org/1999/xlink" x="0px" y="0px"
	 viewBox="0 0 1366 768" style="enable-background:new 0 0 1366 768;" xml:space="preserve">
<style type="text/css">
	.st0{fill:#FFFFFF;}
	.st1{fill:#EBEBEB;}
	.st2{fill:#284651;}
	.st3{fill:#294651;}
	.st4{fill:#2B4853;}
	.st5{fill:#2A4853;}
</style>
<circle class="st0" cx="706.3" cy="373" r="234.8"/>
<g>
	<g>
		<path class="st1" d="M956.8,372.2c-0.3-0.6-0.9-1.2-0.9-1.9c0-17,0-34,0-51c0-0.6,0.6-1.2,0.9-1.9
			C956.8,335.8,956.8,354,956.8,372.2z"/>
		<path class="st2" d="M491.6,372.1c0.1-118,94.9-212.9,211.3-214.7c120.2-1.8,216.4,94.3,218.3,211.1
			c2,119.7-94.2,218.3-214.5,218.5C587.8,587.2,491.7,490.9,491.6,372.1z M571.8,519.7c89.7,0,179.3,0,268.8,0c0-7.3,0-14.3,0-21.7
			c-2.7,0-5.3,0-8,0c0-6.6,0-13,0-19.7c-3.2,0-6.3,0-9.4,0c0-61.6,0-123,0-184.5c1.8,0,3.4,0,5.2,0c0-23.1,0-46.1,0-69.1
			c-80.9,0-161.8,0-242.7,0c0,23.1,0,46,0,69.2c1.5,0,3,0,4.5,0c0,61.5,0,122.9,0,184.5c-3.4,0-6.6,0-10,0c0,6.6,0,13,0,19.6
			c-2.9,0-5.6,0-8.3,0C571.8,505.4,571.8,512.5,571.8,519.7z"/>
		<path class="st3" d="M761.9,408.1c-38.4,0.3-76.6,0.6-115.1,0.9c0-38.3,0-76.5,0-114.9c38.3,0,76.6,0,115.1,0
			C761.9,332.1,761.9,370,761.9,408.1z"/>
		<path class="st4" d="M810.7,294.1c0,54.4,0,108.7,0,163.1c-9.8,0-19.5,0-29.5,0c8.8-15.3,11.4-32,12.7-49.3c-6.7,0-13.1,0-19.6,0
			c0-38,0-75.8,0-113.8C786.4,294.1,798.4,294.1,810.7,294.1z"/>
		<path class="st5" d="M602.6,294c10.6,0,21,0,31.6,0c0,38.3,0,76.5,0,115.1c-5.6,0-11.1,0-16.9,0c-0.3,8.5,0.3,16.7,2.4,24.7
			c2.1,7.9,4.9,15.6,7.4,23.4c-7.9,0-16.2,0-24.6,0C602.6,402.8,602.6,348.5,602.6,294z"/>
	</g>
</g>
</svg>
