<?xml version="1.0" encoding="utf-8"?>
<!-- Generator: Adobe Illustrator 25.0.0, SVG Export Plug-In . SVG Version: 6.00 Build 0)  -->
<svg version="1.1" id="Layer_1" xmlns="http://www.w3.org/2000/svg" xmlns:xlink="http://www.w3.org/1999/xlink" x="0px" y="0px"
	 viewBox="0 0 1366 768" style="enable-background:new 0 0 1366 768;" xml:space="preserve">
<style type="text/css">
	.st0{fill:#FFFFFF;}
	.st1{fill:#284651;}
	.st2{fill:#2E4B56;}
	.st3{fill:#2F4C57;}
	.st4{fill:#304D57;}
	.st5{fill:#314D58;}
</style>
<circle class="st0" cx="706.3" cy="373" r="234.8"/>
<g>
	<g>
		<path class="st1" d="M491.6,372.1c0.1-118.1,95.1-213,211.7-214.7c120.3-1.7,216.7,94.7,218.2,211.8
			c1.6,119.3-94.7,218.1-215.7,217.7C586.6,586.5,491.6,489.9,491.6,372.1z M821.4,281.2c-0.8,0.6-1.4,1.1-2,1.5
			c-8.2,5.5-16.2,11.3-24.6,16.6c-16.2,10.1-34.9,13.4-53,18.3c-10.7,2.9-21.8,2.1-32.7,1.7c-21.4-0.7-42.2-4.4-62.3-11.9
			c-16.1-6-31.2-13.8-44.2-25.3c-4.4-3.9-8.5-8.1-12.7-12.1c-1,9.6-2,19.3-3,29c-1.1,11.2-2.2,22.4-3.3,33.6
			c-1.6,16-3.2,32.1-4.8,48.1c-1.4,13.8-2.6,27.6-4,41.5c-1.5,14.7-3.1,29.4-4.5,44.1c-0.1,0.8,0.2,1.9,0.8,2.5
			c18,17.6,38.2,31.9,61.3,41.9c13.6,5.9,27.9,9.1,42.8,10.7c0-20.8,0-41.6,0-62.3c15.8,0,31.3,0,47,0c0,21.8,0,43.4,0,65.1
			c0.4,0.1,0.6,0.2,0.8,0.2c26.6,2.1,52.6-1.1,78-9.4c14.6-4.8,28.5-10.9,40.9-20c0.7-0.5,1.6-1.6,1.5-2.4
			c-0.9-9.9-1.9-19.9-2.9-29.8c-1.3-12.4-2.8-24.9-4.1-37.3c-1-9-1.8-18.1-2.7-27.1c-1.2-11.4-2.4-22.8-3.6-34.3
			c-1.2-11.7-2.5-23.3-3.7-35c-0.7-6.7-1.4-13.3-2.1-20C823.3,299.9,822.4,290.7,821.4,281.2z M610.2,281.4c0.6-0.7,1.1-1.2,1.6-1.8
			c6.1-7.9,14.1-13.1,23.4-16.3c16.6-5.8,33.7-8.5,51.1-9.7c15.7-1.1,31.5-0.8,47.1,1.3c13,1.8,26.1,4,38.7,7.7
			c13.2,3.8,24,11.7,30.5,24.5c0.2,0.5,0.6,0.8,1.3,1.8c5.3-4.6,10.3-9.1,15.4-13.5c1.4-1.2,1.5-2.6,1.1-4.3
			c-1.4-5.3-3.5-10.3-6.8-14.7c-9.9-13.2-23.5-21.4-38.5-26.9c-16.6-6.1-34-8.3-51.7-9.4c-23.2-1.5-46.1-0.4-69.1,2.9
			c-8.2,1.2-15.9,4.1-23.7,6.8c-16.9,5.8-28.7,17.1-37.1,32.4c-0.7,1.3-0.6,2.3,0.3,3.4C598.6,271.6,603.9,276.8,610.2,281.4z
			 M614.4,284.4c0.3,0.2,0.6,0.5,0.9,0.7c19.9,13.3,41.4,23,65.2,26.8c13.2,2.1,26.5,3.6,39.8,2.5c19.2-1.6,37.9-5.7,56.1-12
			c7.7-2.7,14.9-6.4,22-10.8c-3.3-8.1-8.9-14.4-16.1-18.6c-5.9-3.5-12.6-6.3-19.3-8c-10.4-2.6-21.1-4.8-31.8-5.7
			c-11.7-1.1-23.5-0.9-35.2-0.7c-11.5,0.2-22.9,0.7-34.3,2.7C643.6,264.4,627.6,271.1,614.4,284.4z"/>
		<path class="st2" d="M714.8,349.6c-0.6,0.7-1.4,2.5-2.6,2.9c-1.2,0.4-3.1-0.3-4.3-1.1c-1.2-0.8-1.3-2.2-0.4-3.6
			c0.7-1.1,0.9-2.5,1.6-3.6c0.2-0.4,1.1-0.8,1.6-0.7C712.4,343.9,714.8,346.9,714.8,349.6z"/>
		<path class="st3" d="M807.9,329.4c-0.5,0.7-1.3,2.4-2.6,3c-1,0.5-3-0.1-3.9-0.9c-0.7-0.6-0.5-2.3-0.7-3.6c0-0.1,0.1-0.3,0.1-0.5
			c0.3-1.8,0.7-3.8,2.9-3.9C805.5,323.4,808,326.5,807.9,329.4z"/>
		<path class="st2" d="M657.3,343.7c-0.1,2-2,3.8-3.8,3.7c-2.9-0.3-4-1.4-3.6-4c0-0.2,0.1-0.3,0.1-0.5c-0.1-1.9-0.1-4.2,2.2-4.5
			C654.7,338.1,657.4,341.3,657.3,343.7z"/>
		<path class="st4" d="M762.5,343.7c0,1.8-1.6,3.6-3.1,3.5c-1.9-0.1-3.8-1.8-3.8-3.6c0-1.9,1.7-4.8,2.9-4.8
			C759.9,338.8,762.5,341.9,762.5,343.7z"/>
		<path class="st5" d="M608.8,334.1c0.1-1.8,0.1-4,2.4-4.3c2.2-0.3,4.3,2.1,4.3,4.2c-0.1,2-1.7,3.7-3.4,3.6
			C609.4,337.4,608.7,336.6,608.8,334.1z"/>
	</g>
</g>
</svg>
