<?xml version="1.0" encoding="utf-8"?>
<!-- Generator: Adobe Illustrator 25.0.0, SVG Export Plug-In . SVG Version: 6.00 Build 0)  -->
<svg version="1.1" id="Layer_1" xmlns="http://www.w3.org/2000/svg" xmlns:xlink="http://www.w3.org/1999/xlink" x="0px" y="0px"
	 viewBox="0 0 1366 768" style="enable-background:new 0 0 1366 768;" xml:space="preserve">
<style type="text/css">
	.st0{fill:#FFFFFF;}
	.st1{fill:#284651;}
</style>
<circle class="st0" cx="706.3" cy="373" r="234.8"/>
<g>
	<g>
		<path class="st1" d="M702.8,587.4c-116.4-1.2-212.1-96.1-212.2-214.7c-0.1-118.7,96.7-216,217.2-214.8
			c118.3,1.2,214.5,98.7,212.3,218.9C917.9,493.9,821.5,588.9,702.8,587.4z M702.6,280c-4.1,0-8.2-0.3-12.2,0.1
			c-14.1,1.2-28.2,2.1-42.2,4c-13.3,1.8-26.4,4.7-39.6,7.1c-1.2,0.2-2.3,0.4-2.7,2.1c-4.3,17.1-7.5,34.5-8.6,52.1
			c-0.9,14.1-1.2,28.2-1.1,42.3c0.2,18.8,2.7,37.4,6.4,55.8c0.3,1.5,1,2.1,2.4,2.4c21.9,4.4,44,7.9,66.3,9.8
			c22.3,1.9,44.5,1.7,66.7-0.3c20.5-1.8,40.9-4.8,61.2-8.5c1.9-0.4,2.7-1.1,3.1-3.1c4.2-21,6.6-42.3,6.7-63.7
			c0.1-11.3-0.5-22.7-1.3-34c-1.3-18.1-4.4-35.9-8.9-53.5c-0.4-1.5-1.1-2-2.5-2.3c-7.9-1.4-15.9-2.9-23.8-4.2
			C749.2,282.3,726,279.8,702.6,280z M615,486.3c0.9,2.2,1.5,3.9,2.2,5.6c4.1,9.8,4.1,9.8,13.8,13.9c23.4,9.7,48,12.8,73,12.8
			c14.2,0,28.4-1.3,42.3-4.2c12.1-2.5,23.8-6,34.7-12c1-0.5,2.2-1.1,2.6-1.9c2.1-4.3,3.9-8.8,6-13.6c-29.3,4.8-58.2,8.2-87.4,8.2
			C673.1,495.2,644.2,491.6,615,486.3z M621.3,249.9c54-11.3,107.6-10.9,161.5-0.7c-1.8-6-4.9-9.8-10.4-11.9
			c-8.4-3.2-16.9-5.7-25.8-7.1c-29.6-4.7-59.1-4.8-88.7,0.4c-10.5,1.9-20.7,4.6-30.3,9.4c-0.9,0.4-1.8,1.1-2.3,1.9
			C624,244.3,622.8,246.8,621.3,249.9z M797.8,462c-63.9,12.8-127.3,13.4-191-0.8c0.8,2.7,1.4,4.7,1.8,6.7c0.3,1.5,1.1,2.2,2.7,2.5
			c11.9,1.9,23.7,4.1,35.7,5.8c22.5,3.2,45.1,4.9,67.8,3.7c16.8-0.9,33.6-2.6,50.3-4.4c9.3-1,18.6-2.8,27.9-4.3
			c0.9-0.2,2.2-0.8,2.5-1.6C796.4,467.3,796.9,465,797.8,462z M611.1,275.5c60.9-14.1,121.3-13.6,182.2-0.8c-1-2.9-1.7-5.2-2.7-7.4
			c-0.4-0.8-1.4-1.8-2.3-1.9c-19-3.6-38.1-6.3-57.4-7.9c-20.2-1.6-40.4-1.6-60.5,0.3c-18.4,1.7-36.6,4.5-54.6,8.3
			c-0.7,0.1-1.6,0.8-1.9,1.5C613,269.9,612.2,272.3,611.1,275.5z"/>
	</g>
</g>
</svg>
