<?xml version="1.0" encoding="utf-8"?>
<!-- Generator: Adobe Illustrator 25.0.0, SVG Export Plug-In . SVG Version: 6.00 Build 0)  -->
<svg version="1.1" id="Layer_1" xmlns="http://www.w3.org/2000/svg" xmlns:xlink="http://www.w3.org/1999/xlink" x="0px" y="0px"
	 viewBox="0 0 1366 768" style="enable-background:new 0 0 1366 768;" xml:space="preserve">
<style type="text/css">
	.st0{fill:#FFFFFF;}
	.st1{fill:#284651;}
	.st2{fill:#294752;}
	.st3{fill:#2A4752;}
	.st4{fill:#2A4852;}
	.st5{fill:#2B4853;}
	.st6{fill:#2A4853;}
	.st7{fill:#2C4954;}
	.st8{fill:#2B4954;}
</style>
<circle class="st0" cx="706.3" cy="373" r="234.8"/>
<g>
	<g>
		<path class="st1" d="M706.3,586.5c-118.5,0-214.7-96.3-214.7-214.9c0-118.8,96.9-215.9,217.1-214.6
			c118.1,1.2,213.4,98,212.4,216.7C920.1,490.2,825.4,586.3,706.3,586.5z M780.1,437.9c49.8-34.7,67-96.9,46.1-150.1
			c-20.3-51.8-72.8-85-129.4-79.4c-27.2,2.7-51.1,12.9-71.5,31.1c-26.6,23.8-40.5,53.7-42.6,89.5c-8.5,0-16.9,0-25.3,0
			c0,4.1,0,7.9,0,11.9c8.6,0,17,0,25.4,0c3.2,40.4,21.2,72.3,53.7,96.4c-4.3,3.5-9,6.5-12.7,10.4c-10,10.6-19.5,21.6-27,34.1
			c-3,5-4.1,10.5-4.8,16.2c-0.1,0.7,0.1,1.5,0.2,2.5c5.4,0,10.6,0,16.1,0c-2.3,4-4.4,7.6-6.5,11.4c4.1,2.4,8.1,4.7,12.1,7
			c3.2-5.6,6.4-10.8,9.3-16.2c0.9-1.7,2-2.2,3.9-2.2c53.4,0,106.8,0.1,160.2,0c2,0,3.4,0.5,4.7,2.1c4.3,5.2,8.8,10.3,13.4,15.5
			c3.6-3.1,7.1-6.1,10.6-9.2c-2.4-2.8-4.6-5.4-7.3-8.5c4.3,0,7.8,0,11.5,0c-0.5-6-2.3-11.2-4.6-16.3c-6.8-14.7-16.8-27.1-28.2-38.4
			C785,443.2,782.7,440.6,780.1,437.9z"/>
		<path class="st2" d="M709.2,266.4c0,15.3,0,30.3,0,45.6c-1.5,0.3-3.1,0.6-4.6,1c-10,3.1-16.2,9.8-18.7,20c-0.3,1.2-0.6,1.7-2,1.7
			c-13.7-0.1-27.3,0-41-0.1c-0.2,0-0.3-0.1-0.4-0.1C641.2,303.6,668.4,267.5,709.2,266.4z"/>
		<path class="st3" d="M716.3,312.1c0-15.2,0-30.3,0-45.5c35.8,1.2,65,33.5,64.5,68c-0.8,0-1.5,0-2.3,0c-12.8,0-25.6,0-38.3,0
			c-1.2,0-2,0-2.4-1.5c-2.6-11-9.4-17.8-20.4-20.6C717,312.5,716.6,312.3,716.3,312.1z"/>
		<path class="st2" d="M654,285.7c-7.2,8.4-12.3,17.8-15.6,28.5c-14.2-6.1-28.3-12.2-42.6-18.3c5.3-15.5,13.2-29.2,24.1-41.4
			C631.3,264.9,642.6,275.2,654,285.7z"/>
		<path class="st2" d="M656.1,282.8c-11.1-10.2-22.4-20.4-33.8-30.9c11.6-12.2,25-21.5,40.6-28.2c5.9,14.2,11.7,28.1,17.5,41.9
			c-4.5,2.7-8.8,5-12.9,7.9C663.5,276.3,660,279.6,656.1,282.8z"/>
		<path class="st2" d="M744.3,266.4c6.2-12.9,12.5-25.8,18.9-38.8c16.4,8.5,30,20,41.1,34.7c-0.6,0.4-1,0.8-1.5,1.2
			c-10.9,6.8-21.9,13.5-32.8,20.3c-0.9,0.6-1.6,1-2.6-0.1c-6.4-7-13.9-12.5-22.4-16.6C744.8,266.9,744.6,266.7,744.3,266.4z"/>
		<path class="st3" d="M746.6,395.4c-3.1-7.6-6.1-14.9-9-22.4c-1.9-4.9-3.7-9.9-5.5-14.8c-0.3-0.7-0.3-1.9,0.1-2.4
			c3.3-4.2,5.3-8.9,6-14.2c14.1,0,28.2,0,42.2,0C782.7,357.4,764.6,386.4,746.6,395.4z"/>
		<path class="st3" d="M741.2,265c-4.6-1.3-8.7-2.7-13-3.7c-4.3-0.9-8.6-1.4-13.4-2.2c-0.8-14.6-1.5-29.4-2.3-44.5
			c16.8,0.5,32.4,4.3,47.6,11.4C753.7,239.2,747.4,252.1,741.2,265z"/>
		<path class="st2" d="M642.7,341.6c14.2,0,28.3,0,42.7,0c0.8,5.2,2.6,10,6,14.1c0.3,0.3,0.2,1.1,0.1,1.5c-0.6,2-1,4.1-2,5.9
			c-5.3,10.1-10.8,20-16.2,30C658.4,386.2,641.7,357.8,642.7,341.6z"/>
		<path class="st4" d="M711.3,259.4c-9.7,0.1-18.7,1.9-27.6,5.2c-5.9-14-11.7-27.9-17.6-42.1c13.8-5.4,27.9-7.9,42.9-8
			C709.8,229.5,710.5,244.3,711.3,259.4z"/>
		<path class="st3" d="M784.4,312.7c-3-9.2-7.5-17.6-13.7-25.3c11.9-7.4,23.7-14.7,35.7-22.1c7.8,11.1,13.5,23,17.2,36.1
			C810.5,305.2,797.5,308.9,784.4,312.7z"/>
		<path class="st3" d="M589.7,336.2c-0.2-12.7,1.4-24.8,5.1-37c14.3,6.2,28.4,12.2,42.3,18.2c-0.7,6.3-1.4,12.4-2.1,18.7
			C620.1,336.2,605,336.2,589.7,336.2z"/>
		<path class="st2" d="M828,336.7c-13.4,0-26.6,0-39.6,0c-0.8-6.9-1.7-13.7-2.5-20.8c12.6-3.6,25.4-7.3,38.6-11.1
			C827.2,315.2,828.2,325.7,828,336.7z"/>
		<path class="st4" d="M653.7,385.9c-9.7,10.4-19.5,21-29.5,31.7c-6.7-6.7-12.3-14-17.3-22.2c12.2-8.5,24.3-17,36.2-25.3
			C646.7,375.4,650.1,380.6,653.7,385.9z"/>
		<path class="st3" d="M766.8,388.8c3.7-4.9,7.4-9.8,11.2-14.9c11.2,6.3,22.6,12.7,34.2,19.2c-5,8.7-10.9,16.5-18,23.8
			C785,407.5,775.8,398.1,766.8,388.8z"/>
		<path class="st5" d="M604.6,392.8c-3.7-9-7.3-17.6-11.1-26.6c15.2-3.6,29.7-7,44.3-10.4c1.3,3.7,2.6,7.3,3.9,11
			C629.6,375.3,617.4,383.8,604.6,392.8z"/>
		<path class="st6" d="M824.4,365.2c-3.4,8.6-6.7,16.7-10.1,25.2c-12-6.8-23.3-13.2-34.7-19.6c1.9-4.8,3.8-9.5,5.7-14.4
			C798,359.3,810.8,362.2,824.4,365.2z"/>
		<path class="st7" d="M589.4,339.9c15.7,0,30.7,0,45.8,0c0.6,4.2,1.1,8.2,1.7,12.5c-14.5,3.4-29,6.8-44.2,10.3
			C591.7,355.1,590.6,347.6,589.4,339.9z"/>
		<path class="st6" d="M641.6,432.5c-5.1-4.1-10-8.1-15.1-12.3c10.1-10.8,19.9-21.3,29.7-31.8c4.3,3.6,8.4,7.1,12.9,10.9
			C660.8,410.8,652.3,422.2,641.6,432.5z"/>
		<path class="st6" d="M750.1,402c4.9-3.7,9.5-7.1,14.2-10.7c9,9.3,18.1,18.6,27.6,28.4c-5.4,4.4-10.7,8.7-16.3,13.3
			C766.9,422.4,758.5,412.1,750.1,402z"/>
		<path class="st7" d="M786,353.1c0.4-2.4,0.8-4.5,1.1-6.6c0.3-2,0.5-4.1,0.8-6.2c13.4,0,26.6,0,40.4,0c-1,7.2-2,14.2-3.1,21.5
			C811.8,358.9,798.9,356,786,353.1z"/>
		<path class="st8" d="M711.8,328c5.4,0,9.6,4.1,9.7,9.4c0.1,5.5-4.1,9.8-9.5,9.9c-5.4,0.1-9.8-4.3-9.8-9.7
			C702.2,332.3,706.4,328,711.8,328z"/>
	</g>
</g>
</svg>
