<?xml version="1.0" encoding="utf-8"?>
<!-- Generator: Adobe Illustrator 25.0.0, SVG Export Plug-In . SVG Version: 6.00 Build 0)  -->
<svg version="1.1" id="Layer_1" xmlns="http://www.w3.org/2000/svg" xmlns:xlink="http://www.w3.org/1999/xlink" x="0px" y="0px"
	 viewBox="0 0 1366 768" style="enable-background:new 0 0 1366 768;" xml:space="preserve">
<style type="text/css">
	.st0{fill:#FFFFFF;}
	.st1{fill:#284651;}
</style>
<circle class="st0" cx="706.3" cy="373" r="234.8"/>
<g>
	<g>
		<path class="st1" d="M705.4,156.4c119.3,0.1,215.5,97.3,214.7,216.3c-0.8,117.1-96.5,214.8-217.8,213.2
			c-117.5-1.5-211.8-97.4-211.7-215C490.6,252.6,586.9,156.4,705.4,156.4z M702.5,216.4c-6.1,0-12.1,0-18.2,0c-19.7,0-39.3,0-59,0.1
			c-1.8,0-3.9,0.5-5.3,1.5c-3.5,2.5-2.9,7,1,9.8c12,8.8,24.1,17.7,36.2,26.4c3.6,2.6,5.4,6,5.2,10.4c-0.1,3.9-0.1,7.8,0,11.7
			c0.1,3.6-1.2,6.5-3.7,9c-8,7.8-15.9,15.7-23.9,23.6c-2.3,2.2-3.7,4.8-4,8c-0.9,8.7-1.7,17.5-2.5,26.2c-1.5,15.7-3,31.5-4.5,47.2
			c-1.5,16-3.1,31.9-4.6,47.9c-1.4,14.2-2.7,28.5-4.1,42.7c-1,10.9-2.2,21.8-3.1,32.7c-0.6,6.7,3.9,11.8,10.6,12.2
			c3.6,0.2,7.2,0.2,10.8,0c6-0.3,10.1-4.1,10.8-10.1c0.3-2.1,0.4-4.1,0.5-6.2c1.2-15.3,2.4-30.6,3.6-45.8c1.2-15,2.4-29.9,3.5-44.9
			c1.2-15.3,2.4-30.6,3.6-45.8c0.9-11.2,1.8-22.4,2.7-33.7c0.3-3.5,1.9-6.2,4.7-8.3c7.7-5.6,15.3-11.3,23-16.8
			c1.6-1.1,3.8-2.1,5.7-2.1c7.5,0,15,0.3,22.5,0.8c1.8,0.1,3.8,1,5.3,2c6.8,4.8,13.5,9.7,20.2,14.6c2.6,1.9,4,4.5,4.3,7.7
			c0.5,5.7,1.1,11.4,1.6,17.2c1.4,14.8,2.7,29.6,4.1,44.4c1.3,14.5,2.7,28.9,4,43.4c1.4,15,2.8,30,4.2,45.1
			c0.9,9.3,1.6,18.6,2.6,27.9c0.7,6.9,5.1,10.6,12.1,10.7c3.4,0,6.7,0.1,10.1,0c1.3,0,2.7-0.2,4-0.6c5.7-1.8,8.3-6.6,7.5-13.5
			c-1-9.3-1.8-18.6-2.7-27.9c-1.4-14.3-2.7-28.6-4.1-42.9c-1.4-14.1-2.7-28.3-4.1-42.4c-1.2-12.4-2.4-24.8-3.6-37.2
			c-1.4-14.2-2.8-28.4-4.1-42.7c-0.4-4.4-1.9-7.9-5.2-10.9c-7.9-7.1-15.6-14.4-23.5-21.5c-3-2.8-4.5-6-4.4-10.2
			c0.1-3.9,0.1-7.8,0-11.7c-0.1-4.2,1.7-7.5,5.1-10c5.9-4.3,11.9-8.7,17.8-13c6.4-4.7,12.8-9.3,19.1-14c2.1-1.6,3-3.7,2.4-6.3
			c-0.6-2.5-2.4-4.1-5-4.5c-0.9-0.1-1.9-0.2-2.9-0.2C753.5,216.4,728,216.4,702.5,216.4z M792.1,380.3c-0.2,0.1-0.3,0.2-0.5,0.3
			c1.1,11.3,2.1,22.7,3.2,34c0.4,4.3,3,6.6,7.6,6.7c9.2,0.1,18.3,0.2,27.5,0.1c5.4,0,9-5.3,7.1-10.4c-0.9-2.4-1.9-4.7-3-7
			c-1.3-2.9-3.6-4.4-6.8-4.5c-3.3-0.1-6.6-0.3-9.8,0c-4.4,0.3-7.8-1.2-10.8-4.5C802,390,797,385.2,792.1,380.3z M735.8,359.4
			c-0.7-7.3-1.3-14.1-2.1-20.8c-0.1-0.7-0.9-1.4-1.6-1.9c-5.8-4.3-11.7-8.6-17.6-12.9c-0.5-0.4-1.1-0.9-1.6-0.9
			c-4.8-0.4-9.6-0.7-14.4-1.1c-0.1,0.2-0.1,0.4-0.2,0.6C710.7,334.6,723,346.8,735.8,359.4z"/>
	</g>
</g>
</svg>
