<?xml version="1.0" encoding="utf-8"?>
<!-- Generator: Adobe Illustrator 25.0.0, SVG Export Plug-In . SVG Version: 6.00 Build 0)  -->
<svg version="1.1" id="Layer_1" xmlns="http://www.w3.org/2000/svg" xmlns:xlink="http://www.w3.org/1999/xlink" x="0px" y="0px"
	 viewBox="0 0 1366 768" style="enable-background:new 0 0 1366 768;" xml:space="preserve">
<style type="text/css">
	.st0{fill:#FFFFFF;}
	.st1{fill:#284651;}
</style>
<circle class="st0" cx="706.3" cy="373" r="234.8"/>
<g>
	<g>
		<path class="st1" d="M707.7,586.9c-118.9,1.3-214.3-93.7-217.1-209.3c-2.9-120.4,93.2-218.7,211.8-220.2
			c120-1.5,215.8,94.4,217.7,210.9C922.1,489,825.3,585.8,707.7,586.9z M636,388.2c3-0.5,6-0.7,8.8-1.4c4.4-1.2,9-2.3,13.1-4.2
			c3.9-1.8,4.2-5,1.3-8.2c-1.9-2.1-4.1-4.1-6.1-6.1c-6.9-6.8-11.3-14.8-13-24.3c-0.5-2.5-0.7-5-1.1-7.6c-20.4,2-40.7,4-61.2,6
			c-0.2,58.7-1.4,117.3-0.3,175.8c87.8,0,175.2,0,262.7,0c0-59.6,0-119.4,0-178.7c-19.8-1.7-39.4-3.5-59.1-5.2
			c0.2,2.2,0.5,4.2,0.6,6.3c0.3,11.7-3.1,21.9-12.1,30.1c-5.4,4.9-4.4,8.8,2.4,11.6c1.7,0.7,3.5,1.2,5.2,1.7c1.5,0.4,2.9,0.7,4.3,1
			c0,39.4,0,78.6,0,117.8c-12.2,0-24.2,0-36.3,0c2.9-2.6,5.9-4.9,8.4-7.7c9.4-10.1,13.7-21.8,9.8-35.6c-2.2-7.8-6.4-14.2-13.8-18.2
			c-1.2-0.6-2.5-0.9-3.8-1.3c-0.2,0.2-0.3,0.4-0.5,0.7c0.8,1.5,1.7,3,2.5,4.5c2.2,4.2,0.8,8.2-3.5,10.4c-4,2-7.7,0.5-9.8-3.8
			c-2.2-4.6-1.4-8.9,0.6-13.3c6.5-14.2,4-27.9-2.5-41.3c-3.1-6.4-8.9-9.7-15.9-10.5c-1.2-0.1-2.4,0.2-3.6,0.3c0,0.2-0.1,0.5-0.1,0.7
			c1.7,1,3.3,2.1,4.9,3.1c8.3,5.6,10.3,17.5,4.3,25.6c-1.5,2-3.4,3.5-6,3.5c-5.9,0-9.8-3.3-12.8-8c-2.6-4.2-1.2-7.9,1.6-11.5
			c0.7-0.9,1.2-1.9,2.2-3.5c-1.5,0.3-2.2,0.3-2.8,0.6c-6.1,2.8-10.6,7.1-13.1,13.3c-1.7,4.3-0.9,8.3,2.4,11.7
			c1.2,1.2,2.4,2.4,3.5,3.6c2.1,2.2,3.5,4.7,3.8,7.8c0.6,7.4-3.9,14.4-11.2,17.3c-6.7,2.7-12.6,0.8-17.6-5.7
			c-1.4-1.8-2.6-3.7-3.5-5.1c0,2.7,0.5,5.8-0.1,8.8c-1.7,9.3-3.8,18.6-5.9,27.8c-0.7,3-0.8,5.7,0.6,8.4c1.2,2.2,2.4,4.5,4.2,6
			c4,3.2,8.4,6,12.7,8.8c1.4,0.9,3,1.5,5.1,2.5c-16.8,0-33,0-49.7,0C636,464.5,636,426.4,636,388.2z M782,292
			c-0.4-6.5-0.6-12.7-1.2-18.9c-2.4-25.5-9.2-49.4-24.7-70.2c-0.5-0.7-1.7-1.3-2.7-1.3c-3.1-0.1-6.2,0.1-9.3,0.2
			c-28.6,0.6-57.2,1.3-85.8,1.9c-1.8,0-2.7,0.6-3.2,2.3c-2.2,6.2-4.6,12.4-6.7,18.7c-6,18.2-10.6,36.8-12.6,56
			c-0.4,3.8-0.7,7.6-1.1,11.6c-1.6,0-3.1,0-4.6,0c0,7.3,0,14.4,0,21.6c1.6,0,3-0.2,4.4,0.1c0.7,0.1,1.7,0.8,1.8,1.4
			c3.3,12.4,8.4,24.1,14.3,35.5c5.8,11,14.2,19.1,26.3,22.7c5.9,1.8,12.1,3.2,18.2,4c13.8,1.8,27.6,0.3,41.3-1.2
			c11.1-1.2,19.8-6.8,26.7-15.3c8.3-10.2,12.3-22.2,14.6-34.9c0.7-4,1.2-8,1.9-12.2c2.1,0,4.1,0,6,0c0-7.3,0-14.4,0-21.6
			C784.5,292,783.3,292,782,292z"/>
	</g>
</g>
</svg>
