<?xml version="1.0" encoding="utf-8"?>
<!-- Generator: Adobe Illustrator 25.0.0, SVG Export Plug-In . SVG Version: 6.00 Build 0)  -->
<svg version="1.1" id="Layer_1" xmlns="http://www.w3.org/2000/svg" xmlns:xlink="http://www.w3.org/1999/xlink" x="0px" y="0px"
	 viewBox="0 0 1366 768" style="enable-background:new 0 0 1366 768;" xml:space="preserve">
<style type="text/css">
	.st0{fill:#FFFFFF;}
	.st1{fill:#284651;}
	.st2{fill:#294752;}
	.st3{fill:#2C4954;}
</style>
<circle class="st0" cx="706.3" cy="373" r="234.8"/>
<g>
	<g>
		<path class="st1" d="M706.3,157.4c119.4,0,215.5,97.3,214.8,216.3c-0.7,117.1-96.5,214.8-217.7,213.3
			c-117.5-1.5-211.8-97.3-211.8-214.9C491.6,253.6,587.9,157.4,706.3,157.4z M709.3,234.7c-0.8,0.5-1.4,1.1-2.2,1.5
			c-3.6,2-7.3,3.8-10.8,5.8c-25.7,15.1-51.3,30.2-77,45.3c-23.7,14-47.5,27.9-71.2,41.8c-1.2,0.7-2.2,1.4-2.2,3.2
			c-0.1,41.9-0.4,83.7-0.6,125.6c0,0.9,0,1.9,0,2.8c72.8,0,145.3,0,217.8,0c0-0.5,0-0.8,0-1.1c0-25.7,0-51.5,0-77.2
			c0-1.5,0.3-2.4,1.9-3c10-3.7,20.2-6.2,31-6.4c10.2-0.2,20.2,1,29.8,4.5c1.9,0.7,3.1,1.4,3.1,4c-0.1,23.8-0.1,47.6-0.1,71.4
			c0,2.6,0.3,5.2,0.4,7.9c12.6,0,24.9,0,37.4,0c0-45.7,0-91.4,0-136.7C814.1,294.4,761.7,264.6,709.3,234.7z"/>
		<path class="st2" d="M607.7,363.4c11.9,0,23.7,0,35.7,0c0,18.6,0,37.3,0,56.2c-11.9,0-23.7,0-35.7,0
			C607.7,401.1,607.7,382.5,607.7,363.4z"/>
		<path class="st3" d="M694.1,295.3c6.4,0,12.5,0,18.8,0c0,6,0,11.8,0,17.7c-6.2,0-12.4,0-18.8,0
			C694.1,307.1,694.1,301.2,694.1,295.3z"/>
	</g>
</g>
</svg>
