<?xml version="1.0" encoding="utf-8"?>
<!-- Generator: Adobe Illustrator 25.0.0, SVG Export Plug-In . SVG Version: 6.00 Build 0)  -->
<svg version="1.1" id="Layer_1" xmlns="http://www.w3.org/2000/svg" xmlns:xlink="http://www.w3.org/1999/xlink" x="0px" y="0px"
	 viewBox="0 0 1366 768" style="enable-background:new 0 0 1366 768;" xml:space="preserve">
<style type="text/css">
	.st0{fill:#FFFFFF;}
	.st1{fill:#284651;}
	.st2{fill:#445E67;}
	.st3{fill:#435D66;}
	.st4{fill:#435D67;}
</style>
<circle class="st0" cx="706.3" cy="373" r="234.8"/>
<g>
	<g>
		<path class="st1" d="M491,372.3c0.1-118.2,95.2-213.3,211.8-214.9c120.9-1.6,218.3,96.5,217.8,215.9
			c-0.5,116.9-95.4,214.8-216.3,214C585.6,586.6,491,490,491,372.3z M547.8,452.3c0.1,0.1,0.2,0.2,0.3,0.3c1.5,0.7,3,1.4,4.6,2.1
			c16.8,7.3,34.2,12.9,51.9,17.8c5.9,1.6,11.5,1.8,17.4,0c15-4.6,26.8-12.9,33.2-27.7c2.2-5,4.4-10.1,7.2-14.9
			c7.2-12.4,14.6-24.6,22-36.8c8.7-14.3,18.2-28,28.9-40.9c6.1-7.4,12.4-14.7,20.1-20.4c6.7-4.9,14-6.1,21.8-3.6
			c7.9,2.5,14.5,7,19.3,13.9c6.8,10,14.4,19.3,23.3,27.6c5.8,5.4,10.3,11.8,13.5,19c3.7,8.4,9,15.7,16.4,21.2
			c5.1,3.8,9.2,8.3,12.6,13.6c6,9.5,12.2,18.9,18.3,28.4c1.8,2.8,3.8,5.5,5.8,8.3c4.1-2.8,8-5.5,12-8.2c-2.7-4.1-5.4-8.1-8-12.1
			c-13.8-21.4-27.6-42.9-41.3-64.3c-8.8-13.6-17.4-27.3-26.2-41c-11.1-17.2-21.6-34.8-29.5-53.9c-5.7-14-13.7-27-24-38.1
			c-5.6-6-10.3-12.6-14.3-19.7c-1.4-2.5-2.8-5-4.4-7.4c-4-5.8-9.2-7.1-15.4-3.6c-5.7,3.2-10.7,7.2-13.8,13
			c-3.3,6.3-7.8,11.6-12.3,17c-2.2,2.6-4.5,5.2-6.5,8c-11.1,15.1-22.4,30-33.1,45.3c-9.9,14.2-19.9,28.4-28.7,43.3
			c-7.3,12.2-13,25.4-19.2,38.3c-8.7,18.1-19.4,34.9-31.6,50.8C561.6,435.9,554.6,443.9,547.8,452.3z M858.5,463.9
			c-0.6-1-1.1-1.8-1.6-2.6c-6.9-10.5-13.8-21-20.6-31.5c-2.9-4.5-5.8-9-10.3-12.2c-9.6-7-16.5-16.1-21.3-26.9
			c-2.4-5.3-5.4-10.2-9.8-14.1c-9.7-8.8-17.9-18.9-25.4-29.6c-1.5-2.2-3.4-4.3-5.5-5.9c-13.9-10.6-22.8-8.1-32,0.6
			c-11.5,10.8-21,23.3-29.8,36.2c-9.3,13.6-18.1,27.7-26.5,41.9c-6.2,10.6-11.5,21.7-17.2,32.6c-4.8,9.1-11.4,16.4-20.6,21.1
			c-3.5,1.8-7.1,3.3-11.4,5.3c5.9,1.4,11.1,3.1,16.5,4c19.6,3.3,39.3,6.3,58.9,9.4c7.2,1.1,14.6,3,21.8,2.8
			c13.6-0.3,27.3-1.6,40.8-3.1c19-2.1,37.9-5,56.3-10.4C834.2,477.6,846.8,472,858.5,463.9z"/>
		<path class="st2" d="M803.9,471c-1.5,1.1-2.5,2.3-3.2,2.2c-0.9-0.2-1.7-1.4-2.5-2.2c0.8-0.8,1.6-2.1,2.5-2.2
			C801.4,468.7,802.4,469.9,803.9,471z"/>
		<path class="st3" d="M791.5,464.4c-0.6-0.9-1.6-1.7-1.7-2.7c-0.2-1.5,0.9-2.6,2.3-2.3c0.9,0.2,2.1,1.4,2.2,2.2
			c0,0.9-1.1,1.9-1.7,2.8C792.2,464.4,791.8,464.4,791.5,464.4z"/>
		<path class="st4" d="M786.3,471.3c-1,0.6-1.9,1.7-2.8,1.6c-0.8-0.1-2.2-1.6-2.1-2.2c0.2-0.9,1.4-2.1,2.4-2.2
			c0.7-0.1,1.7,1.1,2.5,1.8C786.3,470.6,786.3,470.9,786.3,471.3z"/>
	</g>
</g>
</svg>
