<?xml version="1.0" encoding="utf-8"?>
<!-- Generator: Adobe Illustrator 25.0.0, SVG Export Plug-In . SVG Version: 6.00 Build 0)  -->
<svg version="1.1" id="Layer_1" xmlns="http://www.w3.org/2000/svg" xmlns:xlink="http://www.w3.org/1999/xlink" x="0px" y="0px"
	 viewBox="0 0 1366 768" style="enable-background:new 0 0 1366 768;" xml:space="preserve">
<style type="text/css">
	.st0{fill:#FFFFFF;}
	.st1{fill:#284651;}
</style>
<circle class="st0" cx="706.3" cy="373" r="234.8"/>
<g>
	<g>
		<path class="st1" d="M706.6,156.4c118.8,0,215.2,97,214.6,216c-0.6,116.7-95.5,214.3-216.3,213.5
			c-118.7-0.8-213.3-97.3-213.2-214.9C491.6,252.5,587.8,156.4,706.6,156.4z M844.9,504.4c0-0.8,0.1-1.5,0.1-2.2
			c0-59.9,0.1-119.7,0.2-179.6c0-1.6-0.4-2.8-1.6-4c-19.2-18.6-38.3-37.3-57.5-56c-25.2-24.5-50.4-49-75.5-73.5
			c-1.2-1.2-2.5-2.3-3.7-3.5c-0.4,0.3-0.6,0.4-0.8,0.6c-18.8,18.3-37.6,36.7-56.4,55c-26.1,25.4-52.3,50.9-78.5,76.3
			c-1.7,1.6-2.3,3.4-2.3,5.6c0,59.6,0,119.2,0,178.9c0,0.8,0.1,1.5,0.1,2.3C661,504.4,752.9,504.4,844.9,504.4z"/>
		<path class="st1" d="M825.4,485.4c-79.1,0-157.9,0-236.8,0c0-0.8-0.1-1.5-0.1-2.1c0-47.1-0.1-94.1,0.1-141.2
			c0-5.2,1.1-10.5,2.1-15.6c0.3-1.7,1.9-3.3,3.2-4.6c8-7.7,16.2-15.1,24.2-22.8c28.7-27.8,57.2-55.6,85.8-83.5
			c0.9-0.9,1.7-1.9,2.8-3c1.5,1.4,2.8,2.6,4.1,3.9c25,24.3,49.9,48.5,74.9,72.8c9.7,9.5,19.4,19,29.2,28.4c2.1,2,4.3,3.9,6.5,5.7
			c2.1,1.7,3.3,3.9,3.6,6.5c0.4,4.8,1,9.6,1,14.3c0,21.4-0.3,42.8-0.4,64.2c-0.1,24.7,0,49.4,0,74.1
			C825.4,483.3,825.4,484.2,825.4,485.4z M718.9,332.9c-15.6,16.9-32.8,31.2-49.5,46c-21.1,18.7-40.1,39.2-55.5,63
			c-3.6,5.5-7.2,11-8.9,17.6c5.7,0.6,11.2,1.1,16.8,1.8c7.4,0.9,14.8,2.6,22.3,2.9c11.6,0.6,23.2,0.5,34.7,0.4
			c29.6-0.2,59.1-0.4,88.7-0.9c12.1-0.2,24-2.1,35.5-6.3c1.5-0.5,2.1-1.2,1.7-2.7c-0.9-3.5-1.2-7.2-2.8-10.3
			c-5-10-9.9-19.9-15.7-29.4c-15.5-25.4-33.8-48.7-54.5-70C727.6,340.8,723.3,337,718.9,332.9z"/>
	</g>
</g>
</svg>
