<?xml version="1.0" encoding="utf-8"?>
<!-- Generator: Adobe Illustrator 25.0.0, SVG Export Plug-In . SVG Version: 6.00 Build 0)  -->
<svg version="1.1" id="Layer_1" xmlns="http://www.w3.org/2000/svg" xmlns:xlink="http://www.w3.org/1999/xlink" x="0px" y="0px"
	 viewBox="0 0 1366 768" style="enable-background:new 0 0 1366 768;" xml:space="preserve">
<style type="text/css">
	.st0{fill:#FFFFFF;}
	.st1{fill:#284651;}
</style>
<circle class="st0" cx="706.3" cy="373" r="234.8"/>
<g>
	<g>
		<path class="st1" d="M707,157.9c118.8,0,215.2,97,214.6,216c-0.6,116.7-95.5,214.3-216.3,213.5C586.6,586.6,492,490.1,492,372.5
			C492.1,254,588.3,157.9,707,157.9z M856,373.2c-0.8,0-1.3-0.1-1.9-0.1c-19.3,0.1-38.5,0.4-57.8,0.4c-41.5,0-83-0.2-124.4-0.3
			c-27.1-0.1-54.2-0.2-81.3-0.3c-1.7,0-2.5-0.5-3.1-2.2c-1.3-4-2.7-8-4.1-12c-0.3-0.9-1-1.9-1.8-2.4c-13.3-8-27.5-10.2-42.6-6.3
			c-0.7,0.2-1.7,1.1-1.8,1.8c-0.7,2.9-1.3,5.8-1.7,8.7c-0.4,2.7-0.1,2.9,2.7,3c8.2,0.2,16.5,0.2,24.7,0.5c6.3,0.2,6.8,0.8,8.7,6.8
			c0.9,3,1.4,6.4,3,9.1c5.2,9.2,10.8,18.3,16.2,27.4c0.8,1.3,1.6,2.6,2,4c4.8,17.5,9.5,35.1,14.4,52.6c2.6,9.3,5.7,18.4,8.6,27.6
			c1,3.2,3.1,4.9,6.4,5.2c5.6,0.5,11.1-0.4,16.6-1.6c-5.7-22.3,9.5-36.5,26-37.5c7.6-0.5,14.4,1.2,20,6.7
			c8.5,8.3,11.5,18.3,9.6,30.1c14.8,0.5,29.4,0.9,44.3,1.4c-0.1-0.7-0.2-1-0.3-1.4c-3.3-14.7,2.7-32.2,21.4-36.2
			c16.4-3.5,31.1,5.5,34.3,21.9c0.7,3.8,0.7,7.8,0.7,11.7c0.1,3.3,0.4,4.2,3.7,5.1c1.5,0.4,3.2,0.8,4.7,0.6
			c4.8-0.6,9.6-1.5,14.4-2.3c1.8-0.3,2.6-1.2,3.1-3c9.8-33,19.7-65.9,29.5-98.8C852.1,386.7,854,380,856,373.2z M847.1,368.5
			c-1.4-7.2-2.6-14-4.2-20.8c-1.9-7.9-6.1-14.3-12.6-19.3c-3.4-2.6-6.7-5.4-10.2-7.9c-6.8-4.9-11.5-11-13.1-19.5
			c-1-5.6-3-10.9-6.2-15.7c-5.4-8.1-12.3-14.3-21.6-17.7c-12.6-4.7-22.2-13.3-29.3-24.7c-0.5-0.9-1.1-1.7-1.7-2.6
			c-2.2-3.6-5.5-5.1-9.7-5.2c-4-0.1-7.6,1.1-10.9,3.2c-3.4,2.2-6.7,4.6-10,7.1c-8.9,6.8-18.3,12.2-29.9,12.9
			c-4.3,0.3-7.4,2.9-9.1,6.9c-0.8,1.8-1.5,3.7-2.1,5.6c-1.8,5.4-5.1,8.8-11,9.6c-6.3,0.9-11.4,4-15.9,8.5
			c-7.2,7.3-10.7,16.3-12.9,26c-1.2,5.1-3.6,6.8-8.9,6.4c-2.9-0.2-5.7-0.4-8.6-0.3c-3.4,0.2-6,1.7-7.8,4.8c-1.4,2.5-3.1,4.8-4.7,7.2
			c-2,2.9-4.3,5.7-6.1,8.8c-2.5,4.3-4.5,9-7.1,13.3c-2.1,3.6-2.5,7-1.2,10.9c0.7,2,1.4,2.7,3.5,2.7c82.5-0.1,165.1-0.1,247.6-0.1
			C844.5,368.5,845.3,368.5,847.1,368.5z M690.8,485.6c0-13.7-10.9-24.7-24.6-24.7c-13.5,0-24.5,11-24.5,24.5
			c0,13.7,11,24.7,24.6,24.7C679.8,510.2,690.8,499.2,690.8,485.6z M741.4,485.5c0,13.7,11,24.7,24.6,24.7c13.5,0,24.5-11,24.5-24.6
			c0-13.7-10.9-24.7-24.6-24.7C752.3,461,741.4,472,741.4,485.5z"/>
	</g>
</g>
</svg>
