<svg id="Component_3_1" data-name="Component 3 – 1" xmlns="http://www.w3.org/2000/svg" width="43" height="43" viewBox="0 0 43 43">
  <circle id="Ellipse_34" data-name="Ellipse 34" cx="21.5" cy="21.5" r="21.5" fill="#2a9d8f"/>
  <g id="location" transform="translate(7.938 7.938)">
    <path id="Path_437" data-name="Path 437" d="M55.861,25.564a3.319,3.319,0,1,0-3.319,3.319,3.319,3.319,0,0,0,3.319-3.319Zm-5.852,0A2.533,2.533,0,1,1,52.542,28.1,2.533,2.533,0,0,1,50.009,25.564Z" transform="translate(-39.191 -18.274)" fill="#dadada"/>
    <path id="Path_438" data-name="Path 438" d="M31.232,30.727l-3.2-8.4a.393.393,0,0,0-.367-.253H21.6l.111-.18c2.333-3.863,3.507-7.242,3.491-10.043a7.291,7.291,0,1,0-14.582,0c-.017,2.8,1.157,6.181,3.491,10.044.037.061.074.12.111.18H8.153a.393.393,0,0,0-.367.253l-3.2,8.4a.393.393,0,0,0,.367.533H30.864a.393.393,0,0,0,.367-.533ZM11.4,11.85a6.505,6.505,0,0,1,13.01,0c.034,5.584-5.186,12.47-6.505,14.121-1.319-1.651-6.539-8.535-6.505-14.122Zm6.206,15a.393.393,0,0,0,.6,0,41.711,41.711,0,0,0,2.9-3.989h6.286l.5,1.319L15.609,28.548l-4.378-5.689H14.71a41.711,41.711,0,0,0,2.9,3.989ZM15.6,29.386h0l7.328-2.605,2.842,3.693H12.539ZM8.424,22.859h1.815l4.591,5.966-4.636,1.649H5.52Zm18.337,7.615L23.7,26.5l4.469-1.589,2.121,5.561Z" transform="translate(-4.556 -4.559)" fill="#dadada"/>
  </g>
</svg>
