<?xml version="1.0" encoding="utf-8"?>
<!-- Generator: Adobe Illustrator 25.0.0, SVG Export Plug-In . SVG Version: 6.00 Build 0)  -->
<svg version="1.1" id="Layer_1" xmlns="http://www.w3.org/2000/svg" xmlns:xlink="http://www.w3.org/1999/xlink" x="0px" y="0px"
	 viewBox="0 0 1366 768" style="enable-background:new 0 0 1366 768;" xml:space="preserve">
<style type="text/css">
	.st0{fill:#FFFFFF;}
	.st1{fill:#284651;}
</style>
<circle class="st0" cx="706.3" cy="373" r="234.8"/>
<g>
	<g>
		<path class="st1" d="M492,373.2c0.1-118,95.2-214,213.4-214.7C826,157.7,922,255.7,921.6,374.1c-0.4,117.7-96.8,215.8-218.4,213.9
			C586.3,586.1,492.1,490.7,492,373.2z M823.1,510.7c0-1.1,0-1.9,0-2.8c0-59.4,0.1-118.8-0.1-178.1c0-6.4-0.6-13-1.7-19.3
			c-5.3-29.6-19.7-53.9-43.3-72.5c-26.9-21.2-57.6-29.1-91.5-24.2c-24.4,3.5-45.7,14-63.4,31.1c-23.8,22.8-36.7,50.8-36.9,83.7
			c-0.4,59.9-0.1,119.7-0.1,179.6c0,0.8,0,1.7,0,2.5c11.7,0,23,0,34.5,0c0-1.1,0-2,0-3c0-57.4,0-114.8,0-172.1c0-3,0.1-6.1,0.5-9.1
			c4.3-31.8,21.3-53.8,50.7-66.4c13.2-5.6,27.1-6.2,41.2-5.3c21.7,1.3,40,10.2,54.7,26.2c14.3,15.7,21,34.3,21,55.5
			c0,57.1,0,114.1,0,171.2c0,1,0,2,0,3C800.2,510.7,811.5,510.7,823.1,510.7z M630.6,356.2c49.5,0,98.6,0,147.4,0
			c0-9.6,0.9-19.1-0.2-28.4c-2.9-26.2-16.9-45.1-40.5-56.7c-12.5-6.1-25.9-7.3-39.5-6.3c-30.1,2.3-50.9,17.7-62.6,45.4
			C629,325,630.9,340.6,630.6,356.2z"/>
	</g>
</g>
</svg>
