<svg xmlns="http://www.w3.org/2000/svg" width="24.588" height="30.795" viewBox="0 0 24.588 30.795">
  <g id="piin" transform="translate(-615.9 -300.2)">
    <g id="Layer_1" transform="translate(616.4 300.7)">
      <g id="Group_172" transform="translate(0 0)">
        <path id="Path_429" d="M1029.28,501.978a11.225,11.225,0,0,0,2.708-7.3,11.8,11.8,0,0,0-23.588,0,11.23,11.23,0,0,0,3.118,7.768l9.371,10.28Z" transform="translate(-1008.4 -483.2)" fill="#264653" stroke="#dadada" stroke-miterlimit="10" stroke-width="1"/>
        <path id="Path_430" d="M1023.5,506.962c2.191-.534,7.768-.267,12.524.588,4.81.873,6.984,2.031,4.846,2.583-.232.053-.463.107-.695.143.036,0,.053-.018.089-.018,2.138-.552-.036-1.71-4.846-2.583A45.841,45.841,0,0,0,1023.5,506.962Zm6.574-11.4a4.071,4.071,0,0,1,2.263,0l3.688,2.3v.053a12.659,12.659,0,0,0-4.686-.713c-2.993-.018-4.382.339-5.184.766v-.107Zm.5-.374v-.214a.092.092,0,0,1,.036-.071l.41-.339c.018-.018.036-.018.071-.018h.125a.066.066,0,0,1,.053.018l.517.339a.1.1,0,0,1,.053.089v.214l.214.089h.018l4.044,2.512a.1.1,0,0,1,.054.089v.552a.115.115,0,0,1-.107.107h-.036v8.979a.1.1,0,0,1-.107.107h-.018l-1.265-.214a.1.1,0,0,1-.089-.107l-.143-3.225h-.036l-.267,3.136a.119.119,0,0,1-.125.107h0l-.766-.107a.1.1,0,0,1-.089-.107c0-.338.018-.8.018-1.211,0-.339,0-.641-.018-.8a.877.877,0,0,0-.071-.232.389.389,0,0,0-.16-.178.506.506,0,0,0-.232-.071.3.3,0,0,0-.214.018.579.579,0,0,0-.232.232,1.042,1.042,0,0,0-.071.339c-.018.143-.018.41-.018.713v1.087a.1.1,0,0,1-.107.107H1032l-.962-.089a.084.084,0,0,1-.089-.089l-.321-2.94h-.071l-.677,2.85a.1.1,0,0,1-.107.071l-.677-.036a.084.084,0,0,1-.089-.089l-.338-2.815h-.16l-.267,2.761c0,.053-.036.071-.089.071l-.909-.018a.084.084,0,0,1-.089-.089v-2.744h-.036l-.5,2.708a.077.077,0,0,1-.071.071h-.374a.077.077,0,0,1-.071-.071h0l.107-8.035h-.036a.084.084,0,0,1-.089-.089h0v-.641a.093.093,0,0,1,.036-.071l4.258-2.565h.018l.178-.089Zm1.033-.16-.445-.285h-.053l-.339.285v.232a.1.1,0,0,1-.053.089l-.232.107-4.222,2.494v.5h.036a.084.084,0,0,1,.089.089h0l-.125,8.053h.231l.446-2.708a.151.151,0,0,1,.142-.125h.071a.153.153,0,0,1,.143.142h0v2.69l.748.018.267-2.708a.138.138,0,0,1,.143-.125h.232a.138.138,0,0,1,.143.125l.339,2.761.517.036.659-2.815a.151.151,0,0,1,.143-.125h.143a.169.169,0,0,1,.16.143l.339,2.886.766.071c0-.285-.018-.659,0-.98,0-.3,0-.588.018-.73a1.131,1.131,0,0,1,.089-.41.778.778,0,0,1,.285-.3.443.443,0,0,1,.3-.053.783.783,0,0,1,.392.125.936.936,0,0,1,.214.249.849.849,0,0,1,.107.321c.018.16.018.481.018.82,0,.374,0,.8-.018,1.122l.552.071.25-3.064a.176.176,0,0,1,.178-.16h.142a.189.189,0,0,1,.178.16l.143,3.189,1.051.178v-8.943a.115.115,0,0,1,.107-.107h.036v-.392l-3.973-2.494-.267-.107a.118.118,0,0,1-.071-.089l-.018-.232Zm-5.131,3.492a5.677,5.677,0,0,1,1.853-.392,26.039,26.039,0,0,1,2.886-.107c1.176,0,2.049.053,2.708.107a5.411,5.411,0,0,1,1.746.321c.018.018.053,0,.071-.018s0-.053-.018-.071h0a5.2,5.2,0,0,0-1.782-.356c-.659-.071-1.532-.125-2.708-.143a22.647,22.647,0,0,0-2.9.143,5.729,5.729,0,0,0-1.888.445c-.018.018-.036.053-.018.071q0,.027.053,0Zm4.668-4.7h.909l-.107.178v.036l.036.071h-.534v.071h.232l-.125.16h-.41v-.517Zm.053-.16a.047.047,0,0,0-.053-.053h0a.047.047,0,0,0-.053.053h0v.962h.125l-.018-.962Z" transform="translate(-1020.81 -491.747)" fill="#264653" fill-rule="evenodd"/>
      </g>
      <ellipse id="Ellipse_41" data-name="Ellipse 41" cx="10.867" cy="11.135" rx="10.867" ry="11.135" transform="translate(1.176 0.766)" fill="#264653"/>
    </g>
    <g id="Layer_2" transform="translate(619.696 305.546)">
      <g id="Group_172-2" data-name="Group 172" transform="translate(0)">
        <rect id="Rectangle_64" data-name="Rectangle 64" width="10.636" height="8.551" transform="translate(3.064 4.828)" fill="#fff"/>
        <path id="Path_681" data-name="Path 681" d="M643.38,327.9l-8.48,5.772,16.23-.534Z" transform="translate(-634.9 -327.9)" fill="#fff"/>
      </g>
    </g>
  </g>
</svg>
