<?xml version="1.0" encoding="utf-8"?>
<!-- Generator: Adobe Illustrator 25.0.0, SVG Export Plug-In . SVG Version: 6.00 Build 0)  -->
<svg version="1.1" id="Layer_1" xmlns="http://www.w3.org/2000/svg" xmlns:xlink="http://www.w3.org/1999/xlink" x="0px" y="0px"
	 viewBox="0 0 1366 768" style="enable-background:new 0 0 1366 768;" xml:space="preserve">
<style type="text/css">
	.st0{fill:#FFFFFF;}
	.st1{fill:#284651;}
</style>
<g>
	<circle class="st0" cx="706.3" cy="373" r="234.8"/>
	<g>
		<g>
			<path class="st1" d="M706.2,588c-118.5,0-214.7-96.4-214.6-215c0-119.2,97.7-216.5,218.4-214.6c117.3,1.9,212.3,98.2,211.2,217
				C920,491.3,825.9,587.7,706.2,588z M739.6,400c0.1,0,0.3,0,0.4,0c9.6-20.6,19.3-41.3,28.9-62c1.3-2.8,2.8-4.9,5.7-5.9
				c2-0.7,3.1-2.1,4-4.1c4.8-10.6,9.8-21.1,14.7-31.7c0.6-1.4,1.3-2,2.9-1.8c1.5,0.1,3,0.1,4.5,0c4.2-0.5,6.8-4,6.8-9
				c0-8,4.8-13.1,12.7-13.5c4.4-0.2,7.6-3.5,7.6-7.9c0.1-5.8,0-11.7,0-17.5c0-5.5-3.2-8.6-8.6-8.6c-75.2,0-150.4,0-225.6,0
				c-5.5,0-8.6,3.1-8.6,8.6c0,5.5,0,11,0,16.5c0,5.6,2.8,8.5,8.3,9c5.4,0.4,9.4,3.1,11.2,8.3c0.7,1.9,0.8,4.1,0.8,6.1
				c0.2,4.8,3.3,8,8.2,8.1c1,0,1.9,0.1,2.9,0c1.5-0.2,2.2,0.5,2.9,1.8c4.8,10.3,9.7,20.6,14.4,31c1.1,2.4,2.5,4.2,4.9,5.1
				c2.3,0.8,3.6,2.5,4.7,4.7c9.4,20.3,18.9,40.6,28.4,60.9c0.4,0.9,0.8,1.7,1.2,2.5c0.4-9.8,0.4-19.4,0.3-29c0-1.5-0.4-3-1-4.3
				c-5.6-12.2-11.4-24.4-17-36.7c-0.6-1.4-0.8-3.3-0.5-4.7c0.7-3.1,0.5-5.8-1-8.7c-3.2-6.2-6-12.7-9-19c-0.5-1.1-1-2.2-1.6-3.4
				c8.7,0,17.1,0,25.6,0c0,4.8,0.1,9.5,0,14.2c-0.1,1.9,0.6,3.3,1.9,4.6c3.1,2.9,5.8,6.2,9.1,8.9c2.9,2.5,3.7,5.2,3.7,8.9
				c-0.1,40.9-0.1,81.8-0.1,122.8c0,15.1,12.8,25.8,27.7,23.2c10.8-1.9,18.6-11.7,18.6-23.5c0-41.7,0-83.4,0-125.2
				c0-1.9,0.6-3.2,1.9-4.6c3.8-3.6,7.5-7.4,11.2-11.2c0.8-0.8,1.3-2.2,1.3-3.3c0.1-4.9,0.1-9.9,0.1-14.9c8.5,0,16.9,0,25.4,0
				c-3.8,8.1-7.4,15.9-11.1,23.7c-1,2-1.4,3.8-0.6,5.9c1,2.8,0.3,5.3-1,8c-5.5,11.6-10.9,23.2-16.3,34.9c-0.3,0.7-0.7,1.5-0.7,2.2
				C739.6,379.6,739.6,389.8,739.6,400z M769.1,362c-0.2,0.4-0.4,0.7-0.6,1c-9.4,20.2-18.9,40.4-28.3,60.7c-0.4,1-0.6,2.1-0.6,3.2
				c0,9-0.1,18.1,0,27.1c0.1,9.9-3.3,18.4-10.6,25c-10,9.1-21.7,11.5-34.2,6.8c-12.6-4.7-20.1-14.2-21.3-27.6
				c-0.8-9.9-0.2-20-0.4-29.9c0-1.6-0.4-3.3-1.1-4.8c-4.9-10.8-10-21.5-15-32.3c-4.5-9.7-9-19.3-13.6-29
				c-30.7,22.4-49.7,65.5-37.5,110.4c12.3,45.5,54.6,77.8,103.4,76.5c45-1.2,85.8-31.9,97.7-77.5C818.9,426.1,798.9,383.4,769.1,362
				z"/>
		</g>
	</g>
</g>
</svg>
